<svg width="38" height="38" viewBox="0 0 38 38" fill="none" xmlns="http://www.w3.org/2000/svg">
<path d="M33.3925 11.0517C32.0467 9.56332 29.7984 8.81916 26.5367 8.81916H26.1567V8.75582C26.1567 6.09582 26.1567 2.80249 20.2034 2.80249H17.7967C11.8434 2.80249 11.8434 6.11166 11.8434 8.75582V8.83499H11.4634C8.18585 8.83499 5.95335 9.57916 4.60752 11.0675C3.04002 12.8092 3.08752 15.1525 3.24585 16.7517L3.26169 16.8625L3.39747 18.2883C3.41174 18.438 3.4923 18.5732 3.618 18.6559C3.96989 18.8874 4.70696 19.3666 5.13002 19.6017C5.35169 19.7442 5.58919 19.8708 5.82669 19.9975C8.53419 21.4858 11.5109 22.4833 14.535 22.9742C14.6775 24.4625 15.3267 26.2042 18.7942 26.2042C22.2617 26.2042 22.9425 24.4783 23.0534 22.9425C26.2834 22.42 29.4025 21.2958 32.2209 19.6492C32.3159 19.6017 32.3792 19.5542 32.4584 19.5067C33.1231 19.1309 33.8142 18.6629 34.4354 18.2109C34.5481 18.1289 34.6204 18.0029 34.6358 17.8644L34.675 17.5117L34.7542 16.7675C34.77 16.6725 34.77 16.5933 34.7859 16.4825C34.9125 14.8833 34.8809 12.6983 33.3925 11.0517ZM20.7259 21.8975C20.7259 23.5758 20.7259 23.8292 18.7784 23.8292C16.8309 23.8292 16.8309 23.5283 16.8309 21.9133V19.9183H20.7259V21.8975ZM14.1075 8.81916V8.75582C14.1075 6.06416 14.1075 5.06666 17.7967 5.06666H20.2034C23.8925 5.06666 23.8925 6.07999 23.8925 8.75582V8.83499H14.1075V8.81916Z" fill="#2F55D4"/>
<path d="M33.5212 21.52C33.8739 21.3499 34.281 21.6296 34.2456 22.0196L33.63 28.8008C33.2975 31.9675 31.9991 35.1975 25.0325 35.1975H12.9675C6.00079 35.1975 4.70246 31.9675 4.36996 28.8167L3.78424 22.3738C3.7492 21.9884 4.14653 21.7087 4.49841 21.8699C6.16902 22.6353 10.0782 24.3726 12.3064 24.9234C12.4713 24.9642 12.6064 25.0819 12.6738 25.2378C13.6036 27.3866 15.7144 28.5317 18.7941 28.5317C21.8433 28.5317 23.9823 27.3426 24.9143 25.1905C24.9819 25.0345 25.1166 24.9169 25.2816 24.876C27.6427 24.2914 31.7821 22.3582 33.5212 21.52Z" fill="#2F55D4"/>
</svg>
