<svg width="82" height="61" viewBox="0 0 82 61" fill="none" xmlns="http://www.w3.org/2000/svg">
<path d="M19.2709 25.1159H19.271C22.5728 25.1156 25.8073 26.0502 28.6002 27.8115C31.3931 29.5727 33.6303 32.0887 35.053 35.0683C36.4757 38.0479 37.0258 41.3694 36.6396 44.6486C36.2535 47.9278 34.9468 51.0307 32.8708 53.5983C30.7949 56.1659 28.0344 58.0933 24.9088 59.1575C21.7831 60.2218 18.4201 60.3794 15.2086 59.6122C11.9971 58.8449 9.06847 57.1842 6.76145 54.822C4.45442 52.4598 2.86328 49.4928 2.17209 46.2641L2.02321 45.5686L1.96359 45.5824C1.88417 45.0356 1.78109 44.2894 1.72496 43.5261L1.72436 43.5179L1.72356 43.5097C1.55752 41.8018 1.47694 39.4241 1.61274 36.5531C1.77641 33.6941 2.19886 30.3591 3.14041 26.8535C3.63789 25.103 4.24473 23.3072 4.99538 21.5553C5.08366 21.369 5.17105 21.1835 5.25802 20.9989C6.01659 19.3886 6.7439 17.8447 7.76301 16.4256L7.78118 16.4003L7.79703 16.3735C8.77985 14.7108 10.0548 13.2362 11.383 11.7953L11.4013 11.7755L11.418 11.7543C11.9827 11.0381 12.6567 10.4244 13.3801 9.82643C13.6309 9.61908 13.8954 9.40777 14.1635 9.19359C14.6393 8.81347 15.1264 8.42431 15.5685 8.03227C16.23 7.48154 16.9438 7.02716 17.6804 6.59449C17.9251 6.45077 18.1779 6.30642 18.4327 6.16091C18.9275 5.87832 19.4301 5.59133 19.8962 5.29592L19.9031 5.29158L19.9098 5.28709C20.5431 4.86487 21.2101 4.55837 21.8967 4.28195C22.1327 4.18697 22.3813 4.09185 22.6333 3.99542C23.0772 3.8256 23.5316 3.65175 23.9457 3.46756C24.2883 3.33438 24.6109 3.2031 24.9178 3.07822C25.8366 2.70428 26.6147 2.38761 27.3681 2.24861L27.3906 2.24447L27.4127 2.23888C28.031 2.08255 28.5901 1.94499 29.104 1.81856C29.4907 1.72343 29.8517 1.6346 30.1931 1.54882L31.9281 1.13034L33.5735 7.70487L32.2166 8.26882L32.2145 8.26967L30.0621 9.15617C29.5642 9.32082 29.0996 9.56562 28.6627 9.82048C28.4617 9.93771 28.2594 10.0614 28.0608 10.1829C28.0391 10.1961 28.0175 10.2094 27.9958 10.2226C27.7739 10.3583 27.5545 10.4916 27.3295 10.6206L27.309 10.6324L27.2893 10.6455C27.0048 10.8352 26.7097 10.9976 26.3808 11.1788C26.2207 11.267 26.0525 11.3596 25.8735 11.462C25.3583 11.7567 24.802 12.1083 24.3086 12.5926C24.0017 12.8761 23.6707 13.1339 23.3094 13.4153C23.188 13.5099 23.0631 13.6071 22.9346 13.7089C22.4382 14.102 21.9111 14.5459 21.4565 15.0931L21.4484 15.1029L21.4407 15.1129C21.1774 15.4543 20.8881 15.76 20.5711 16.0951C20.4512 16.2218 20.3273 16.3527 20.1994 16.4913C19.7607 16.9666 19.3026 17.5059 18.9605 18.1657C18.9447 18.1898 18.9288 18.2139 18.9129 18.2381C18.234 19.2692 17.5088 20.3707 17.0309 21.6418C16.5443 22.5605 16.2444 23.5662 15.9729 24.479L15.6606 25.529L16.7447 25.3713C16.8064 25.3623 16.8678 25.3533 16.9289 25.3444C17.7361 25.2262 18.4903 25.1159 19.2709 25.1159ZM60.4312 24.479L60.1189 25.529L61.203 25.3713C61.2647 25.3623 61.3261 25.3533 61.3872 25.3444C62.1944 25.2262 62.9486 25.1159 63.7293 25.1159C67.0312 25.1156 70.2656 26.0502 73.0585 27.8115C75.8514 29.5727 78.0886 32.0887 79.5113 35.0683C80.934 38.0479 81.4841 41.3694 81.098 44.6486C80.7118 47.9278 79.4052 51.0307 77.3292 53.5983C75.2532 56.1659 72.4927 58.0933 69.3671 59.1575C66.2415 60.2218 62.8784 60.3794 59.6669 59.6122C56.4555 58.8449 53.5268 57.1842 51.2198 54.822C48.9128 52.4598 47.3216 49.4928 46.6304 46.2641L46.4815 45.5686L46.4219 45.5824C46.3425 45.0356 46.2394 44.2894 46.1833 43.5261L46.1827 43.5179L46.1819 43.5097C46.0159 41.8018 45.9353 39.4242 46.0711 36.5535C46.2347 33.6943 46.6572 30.3592 47.5988 26.8534C48.0963 25.103 48.7031 23.3072 49.4537 21.5553C49.542 21.369 49.6294 21.1835 49.7163 20.9989C50.4749 19.3886 51.2022 17.8447 52.2213 16.4256L52.2395 16.4003L52.2554 16.3735C53.2382 14.7108 54.5131 13.2362 55.8413 11.7953L55.8593 11.7758L55.8758 11.755C56.4405 11.0406 57.1147 10.4277 57.8382 9.83015C58.0878 9.62399 58.3508 9.41397 58.6173 9.20111C59.0945 8.82 59.5831 8.4298 60.0269 8.03631C60.6884 7.48558 61.4021 7.0312 62.1387 6.59854C62.3834 6.45481 62.6362 6.31046 62.891 6.16495C63.3859 5.88236 63.8884 5.59537 64.3546 5.29996L64.362 5.29524L64.3693 5.29034C65.0019 4.86679 65.6691 4.56054 66.3564 4.28404C66.5858 4.19176 66.8267 4.0995 67.0709 4.00598C67.5217 3.83333 67.9837 3.65639 68.4053 3.46708C68.7474 3.33406 69.0696 3.20295 69.3761 3.07821C70.295 2.70428 71.0731 2.38761 71.8264 2.24861L71.8489 2.24447L71.871 2.23888C72.4894 2.08254 73.0485 1.94497 73.5625 1.81853C73.9491 1.72343 74.31 1.63461 74.6514 1.54885C74.6525 1.54856 74.6536 1.54828 74.6547 1.548L76.3865 1.13034L78.0318 7.70487L76.6749 8.26882L76.6728 8.26967L74.5205 9.15617C74.0225 9.32082 73.5579 9.56562 73.121 9.82048C72.9201 9.93767 72.7179 10.0613 72.5193 10.1828L72.4542 10.2226C72.2322 10.3583 72.0128 10.4916 71.7878 10.6206L71.7673 10.6324L71.7476 10.6455C71.4631 10.8352 71.1681 10.9976 70.8392 11.1788C70.679 11.267 70.5108 11.3596 70.3319 11.462C69.8166 11.7567 69.2604 12.1083 68.7671 12.5925C68.4601 12.8761 68.1291 13.1338 67.7677 13.4153C67.6463 13.5098 67.5215 13.6071 67.3929 13.7089C66.8966 14.102 66.3694 14.5459 65.9149 15.0931L65.9068 15.1029L65.899 15.1129C65.6358 15.4543 65.3465 15.76 65.0295 16.095C64.9096 16.2218 64.7857 16.3527 64.6577 16.4913C64.2191 16.9666 63.761 17.5059 63.4189 18.1657L63.3712 18.2381C62.6924 19.2692 61.9672 20.3707 61.4892 21.6418C61.0026 22.5605 60.7027 23.5662 60.4312 24.479Z" stroke="white" stroke-width="1.4"/>
</svg>
