<svg width="167" height="39" viewBox="0 0 167 39" fill="none" xmlns="http://www.w3.org/2000/svg">
<path fill-rule="evenodd" clip-rule="evenodd" d="M85.7848 0.0948738C72.7351 1.04872 60.2641 5.87509 49.8902 13.9863C48.1892 15.3162 46.5148 16.7361 45.2371 17.932C44.7671 18.3719 44.3253 18.7854 44.2555 18.8507C44.1529 18.9464 44.2447 19.0432 44.7303 19.3512C45.0613 19.5611 45.7276 20.1417 46.211 20.6413L47.0898 21.5499L48.0627 20.6552C56.3932 12.9931 66.5096 7.69349 77.3334 5.32147C81.7199 4.36026 85.6729 3.94002 90.3904 3.93355C93.5357 3.92917 95.1638 4.02214 98.0346 4.37011C107.828 5.55697 117.374 9.19658 125.62 14.8875C130.453 18.2226 133.146 20.8409 137.145 26.0915C138.734 28.1778 139.378 29.0931 139.314 29.1771C139.264 29.2427 137.845 31.1776 136.16 33.4769C134.474 35.7762 132.884 37.9374 132.626 38.2795L132.156 38.9016H134.532H136.908L139.347 35.5689L141.786 32.2363L142.796 33.6099C143.351 34.3654 144.446 35.863 145.229 36.9378L146.654 38.8922L149.063 38.8969L151.472 38.9016L151.201 38.5283C151.053 38.3231 149.403 36.105 147.536 33.5994L144.141 29.0438L147.558 24.4223C149.437 21.8805 150.974 19.7762 150.974 19.746C150.974 19.716 149.934 19.6913 148.663 19.6913H146.351L144.495 22.2045C143.475 23.5869 142.448 24.9759 142.213 25.2914L141.787 25.8651L140.375 23.9477C138.651 21.6048 137.406 20.099 135.596 18.1647C133.526 15.9526 131.413 14.1882 127.947 11.7776C117.974 4.84181 106.952 0.946398 94.8696 0.0868121C93.1891 -0.0327297 87.4611 -0.027654 85.7848 0.0948738ZM22.2095 23.4577C22.2095 33.9204 22.216 34.3174 22.397 35.0599C22.8433 36.8884 23.8993 38.1195 25.5331 38.716C26.0524 38.9056 26.3537 38.9421 27.4323 38.9464C28.5859 38.9508 28.795 38.9236 29.5215 38.6739C29.9655 38.5213 30.3878 38.3583 30.4599 38.3115C30.571 38.2396 30.5653 37.932 30.4225 36.2996C30.3299 35.2399 30.2448 34.3604 30.2335 34.3452C30.2221 34.3301 29.8606 34.4734 29.4301 34.6638C27.6717 35.4411 26.7022 35.3423 26.2606 34.3408L26.0553 33.875L26.0284 23.2497L26.0013 12.6243H24.1055H22.2095V23.4577ZM81.939 17.0038C81.939 19.4126 81.9198 21.3834 81.8962 21.3834C81.8728 21.3834 81.6637 21.2491 81.4317 21.085C80.7849 20.6274 79.6939 20.1158 78.8528 19.8757C77.7388 19.5577 75.4074 19.5535 74.2187 19.8675C70.5806 20.8281 68.0788 23.8599 67.596 27.8929C67.3296 30.1184 67.7043 32.3698 68.6449 34.1978C69.9037 36.6441 71.9596 38.227 74.6295 38.8056C75.4698 38.9878 75.8232 39.0129 76.9061 38.9672C77.7395 38.932 78.4327 38.8438 78.8872 38.7153C79.6587 38.4971 81.0582 37.8274 81.529 37.451C81.6953 37.3182 81.8556 37.2095 81.8851 37.2095C81.9147 37.2095 81.939 37.5902 81.939 38.0555V38.9016H83.8382H85.7373V25.7629V12.6243H83.8382H81.939V17.0038ZM109.763 23.4985C109.765 35.4668 109.743 34.9958 110.353 36.2938C110.738 37.1143 111.556 37.985 112.314 38.3821C113.705 39.1104 115.61 39.2024 117.206 38.6182C117.671 38.4483 118.068 38.2909 118.089 38.2685C118.145 38.2102 117.815 34.4849 117.748 34.4087C117.717 34.3739 117.264 34.5269 116.742 34.7489C115.198 35.4051 114.281 35.2941 113.823 34.3955L113.608 33.9746L113.582 23.2994L113.556 12.6243H111.659H109.762L109.763 23.4985ZM11.2892 13.8808C5.59938 14.3825 1.34321 18.2065 0.22468 23.822C0.137413 24.2599 0.0428334 25.1839 0.0143456 25.8752C-0.0805188 28.1819 0.292291 30.1071 1.21663 32.0834C2.6508 35.1497 4.9754 37.2693 8.09178 38.3521C9.63886 38.8897 10.7329 39.0359 12.7484 38.9745C14.1995 38.9303 14.6236 38.8804 15.445 38.6567C17.703 38.0421 19.3912 37.0159 20.9084 35.3356C21.3561 34.8397 21.4416 34.6929 21.3657 34.5493C21.3144 34.4521 20.738 33.8161 20.0848 33.1359L18.897 31.899L18.2219 32.5667C17.3782 33.4008 16.9162 33.7556 16.1321 34.1716C13.2385 35.7066 9.44049 35.2695 6.8424 33.1026C5.62255 32.0851 4.59794 30.4052 4.15344 28.6938C3.85754 27.5549 3.85545 25.3545 4.14907 24.2201C4.93172 21.197 7.10268 18.9486 10.0347 18.1247C10.8375 17.8991 11.141 17.866 12.3812 17.8684C13.539 17.8706 13.9477 17.9115 14.5653 18.0868C16.0187 18.4992 17.1797 19.2186 18.2657 20.3794C18.5774 20.7126 18.8567 20.9852 18.8862 20.9852C18.9157 20.9852 19.5109 20.3546 20.209 19.5839L21.4782 18.1825L20.6806 17.3361C20.2419 16.8705 19.6238 16.2937 19.3069 16.0543C18.072 15.121 16.318 14.3707 14.6848 14.0772C13.8449 13.9263 11.9903 13.819 11.2892 13.8808ZM89.3458 26.4597V38.9016H91.2925H93.2391V35.2188V31.536H96.3369C99.7308 31.536 100.806 31.4323 102.203 30.9705C105.302 29.9461 107.216 27.7966 107.822 24.6614C108.043 23.5219 107.968 21.2582 107.675 20.1916C106.746 16.812 104.003 14.6361 100.029 14.1277C99.5094 14.0613 97.2462 14.0183 94.2599 14.0181L89.3458 14.0178V26.4597ZM99.247 18.0015C100.407 18.1168 101.537 18.4551 102.165 18.8754C102.698 19.2321 103.323 19.9388 103.59 20.4883C104.037 21.4067 104.177 22.9109 103.921 24.0478C103.517 25.8455 102.47 26.8575 100.478 27.3773C99.7122 27.5771 99.406 27.5941 96.4678 27.5989L93.2866 27.6043L93.2619 22.8764C93.2482 20.276 93.2577 18.0925 93.2826 18.0241C93.3404 17.8663 97.7202 17.8497 99.247 18.0015ZM37.2131 19.7009C36.3301 19.8409 34.8818 20.3828 34.0252 20.8942C33.1617 21.4095 31.9621 22.5534 31.3642 23.4316C29.0861 26.7781 29.0901 31.807 31.3736 35.169C31.8437 35.8611 32.8798 36.9277 33.5407 37.3998C34.254 37.9094 35.4922 38.4793 36.4176 38.7241C37.6194 39.042 40.1237 39.0392 41.2489 38.7187C43.9946 37.9367 46.193 35.9255 47.2321 33.2451C47.7427 31.9278 47.8892 31.0292 47.8835 29.2467C47.8789 27.814 47.8475 27.4834 47.6372 26.6576C46.7589 23.2081 44.3898 20.7191 41.1912 19.8855C40.2622 19.6434 38.1849 19.547 37.2131 19.7009ZM124.371 19.7408C121.637 20.2844 119.42 22.0374 118.178 24.6394C117.246 26.5897 116.946 29.2598 117.404 31.5157C118.371 36.2809 122.222 39.2218 127.165 38.9709C128.61 38.8977 129.681 38.6292 130.796 38.061C132.135 37.3784 132.772 36.8189 134.047 35.2057C134.16 35.0631 134.031 34.8701 132.982 33.6132C132.326 32.8265 131.758 32.1741 131.72 32.1632C131.681 32.1524 131.394 32.4759 131.08 32.8823C130.427 33.7294 129.867 34.2098 129.11 34.5732C127.386 35.4005 124.961 35.2362 123.405 34.1869C122.86 33.8191 122.11 33.0191 121.888 32.568L121.743 32.2749L128.263 30.947C131.85 30.2166 134.798 29.6063 134.815 29.5907C134.896 29.5182 134.621 27.0289 134.464 26.4099C133.634 23.1328 131.401 20.736 128.376 19.8775C127.426 19.6078 125.39 19.5383 124.371 19.7408ZM156.134 19.7326C154.241 20.1107 152.819 20.8617 151.51 22.1736C150.16 23.5265 149.294 25.2108 148.872 27.3057C148.717 28.0754 148.717 30.5157 148.872 31.2871C149.64 35.1077 151.959 37.7317 155.438 38.7164C156.13 38.9125 156.473 38.9449 157.859 38.9449C159.245 38.9449 159.588 38.9125 160.28 38.7164C162.661 38.0426 164.552 36.5662 165.725 34.4647C166.983 32.2115 167.341 29.1647 166.66 26.5094C165.815 23.2158 163.388 20.6993 160.27 19.8851C159.239 19.6156 157.112 19.5373 156.134 19.7326ZM49.6762 26.1859C49.7131 33.5575 49.6747 33.1586 50.5245 35.01C50.9242 35.8809 51.1169 36.1683 51.7361 36.8174C52.356 37.4672 52.6287 37.6678 53.4604 38.0865C54.9155 38.8191 55.5436 38.9528 57.4869 38.9442C58.9575 38.9376 59.1757 38.9131 59.9375 38.6692C60.7842 38.3981 61.5449 38.0398 62.0212 37.6876L62.2824 37.4945V38.1981V38.9016H64.1816H66.0807V29.2964V19.6913H64.1885H62.2962L62.2573 25.3399C62.2227 30.3565 62.1998 31.0553 62.0516 31.5857C61.3629 34.0522 59.6361 35.2762 57.1089 35.0893C55.3028 34.9556 54.2575 34.1378 53.7124 32.4318C53.5107 31.8006 53.5048 31.6366 53.4724 25.738L53.4392 19.6913H51.5415H49.6438L49.6762 26.1859ZM40.1002 23.6702C41.1156 23.9424 41.8511 24.3818 42.5276 25.1202C44.6047 27.3875 44.5258 31.506 42.3644 33.637C41.2645 34.7215 40.0006 35.1888 38.4476 35.0851C37.0655 34.9928 36.0533 34.5224 35.1165 33.5369C34.0645 32.4303 33.576 31.0835 33.5784 29.2964C33.5809 27.5225 34.0693 26.1752 35.1102 25.0709C36.4041 23.6984 38.2609 23.1772 40.1002 23.6702ZM77.8082 23.624C78.8159 23.8468 79.612 24.3001 80.3247 25.0574C81.3712 26.1693 81.8637 27.5229 81.8668 29.2964C81.8698 31.0689 81.3718 32.4457 80.3325 33.5376C79.694 34.2083 79.1659 34.5468 78.2355 34.8814C77.4545 35.1623 75.7487 35.1367 74.912 34.8313C73.3643 34.2666 72.284 33.0966 71.7153 31.3695C71.4912 30.6892 71.4582 30.4326 71.4546 29.3462C71.4484 27.4812 71.873 26.2643 72.9342 25.1058C74.1661 23.7612 75.9606 23.2156 77.8082 23.624ZM127.359 23.6221C128.507 23.9356 129.505 24.6899 130.14 25.7253C130.482 26.281 130.639 26.7583 130.481 26.7583C130.427 26.7583 128.302 27.1858 125.758 27.7083C123.215 28.2309 121.109 28.6317 121.078 28.5991C121.046 28.5665 121.091 28.1855 121.176 27.7524C121.584 25.6838 122.923 24.1538 124.785 23.6286C125.451 23.4407 126.683 23.4376 127.359 23.6221ZM158.99 23.6228C160.852 24.0362 162.201 25.3345 162.811 27.298C163.015 27.9536 163.063 28.3042 163.071 29.1969C163.077 29.8283 163.026 30.5235 162.951 30.8392C162.294 33.6041 160.085 35.3042 157.433 35.0866C155.252 34.9076 153.595 33.5186 152.908 31.2949C152.706 30.6382 152.659 30.2903 152.653 29.396C152.64 27.5216 153.115 26.1928 154.21 25.0405C155.445 23.7413 157.191 23.2234 158.99 23.6228Z" fill="white"/>
</svg>
